HIERARCHY
ROOT Hips
{
	OFFSET 0.053599 88.859886 3.107447
	CHANNELS 6 Xposition Yposition Zposition Zrotation Yrotation Xrotation 
	JOINT Spine
	{
		OFFSET -0.000000 8.814246 -2.080107
		CHANNELS 3 Zrotation Yrotation Xrotation
		JOINT Spine1
		{
			OFFSET 0.000000 8.844141 0.000000
			CHANNELS 3 Zrotation Yrotation Xrotation
			JOINT Spine2
			{
				OFFSET -0.000000 11.682268 0.000000
				CHANNELS 3 Zrotation Yrotation Xrotation
				JOINT Spine3
				{
					OFFSET 0.000000 11.746700 0.000000
					CHANNELS 3 Zrotation Yrotation Xrotation
					JOINT Neck
					{
						OFFSET -0.000000 17.658264 -0.000000
						CHANNELS 3 Zrotation Yrotation Xrotation
						JOINT Neck1
						{
							OFFSET -0.000000 5.101515 -0.000000
							CHANNELS 3 Zrotation Yrotation Xrotation
							JOINT Head
							{
								OFFSET 0.000000 5.101515 0.000000
								CHANNELS 3 Zrotation Yrotation Xrotation
								JOINT HeadEnd
								{
									OFFSET 0.000000 11.655085 0.000000
									CHANNELS 3 Zrotation Yrotation Xrotation
									End Site
									{
										OFFSET 0.000000 0.000000 0.000000
									}
								}
							}
						}
					}
					JOINT RightShoulder
					{
						OFFSET -2.625389 11.175210 0.000000
						CHANNELS 3 Zrotation Yrotation Xrotation
						JOINT RightArm
						{
							OFFSET -0.000000 10.434715 -0.000000
							CHANNELS 3 Zrotation Yrotation Xrotation
							JOINT RightForeArm
							{
								OFFSET -0.000000 29.628420 0.000000
								CHANNELS 3 Zrotation Yrotation Xrotation
								JOINT RightHand
								{
									OFFSET -0.000000 22.857611 0.000000
									CHANNELS 3 Zrotation Yrotation Xrotation
									JOINT RightHandThumb1
									{
										OFFSET -2.867323 3.959563 2.944291
										CHANNELS 3 Zrotation Yrotation Xrotation
										JOINT RightHandThumb2
										{
											OFFSET 0.000000 3.350399 0.000000
											CHANNELS 3 Zrotation Yrotation Xrotation
											JOINT RightHandThumb3
											{
												OFFSET 0.000000 3.756509 -0.000000
												CHANNELS 3 Zrotation Yrotation Xrotation
												JOINT RightHandThumb4
												{
													OFFSET 0.000000 3.147345 0.000000
													CHANNELS 3 Zrotation Yrotation Xrotation
													End Site
													{
														OFFSET 0.000000 0.000000 0.000000
													}
												}
											}
										}
									}
									JOINT RightHandIndex1
									{
										OFFSET -0.086752 10.030893 2.345280
										CHANNELS 3 Zrotation Yrotation Xrotation
										JOINT RightHandIndex2
										{
											OFFSET -0.000000 4.061090 0.000000
											CHANNELS 3 Zrotation Yrotation Xrotation
											JOINT RightHandIndex3
											{
												OFFSET -0.000000 3.248873 0.000000
												CHANNELS 3 Zrotation Yrotation Xrotation
												JOINT RightHandIndex4
												{
													OFFSET 0.000000 2.639709 -0.000000
													CHANNELS 3 Zrotation Yrotation Xrotation
													End Site
													{
														OFFSET 0.000000 0.000000 0.000000
													}
												}
											}
										}
									}
									JOINT RightHandMiddle1
									{
										OFFSET 0.104102 9.502952 0.006768
										CHANNELS 3 Zrotation Yrotation Xrotation
										JOINT RightHandMiddle2
										{
											OFFSET 0.000000 4.568727 0.000000
											CHANNELS 3 Zrotation Yrotation Xrotation
											JOINT RightHandMiddle3
											{
												OFFSET 0.000000 3.654981 -0.000000
												CHANNELS 3 Zrotation Yrotation Xrotation
												JOINT RightHandMiddle4
												{
													OFFSET -0.000000 2.741236 -0.000000
													CHANNELS 3 Zrotation Yrotation Xrotation
													End Site
													{
														OFFSET 0.000000 0.000000 0.000000
													}
												}
											}
										}
									}
									JOINT RightHandRing1
									{
										OFFSET 0.086752 8.921708 -2.267442
										CHANNELS 3 Zrotation Yrotation Xrotation
										JOINT RightHandRing2
										{
											OFFSET -0.000000 4.061090 0.000000
											CHANNELS 3 Zrotation Yrotation Xrotation
											JOINT RightHandRing3
											{
												OFFSET 0.000000 3.654981 -0.000000
												CHANNELS 3 Zrotation Yrotation Xrotation
												JOINT RightHandRing4
												{
													OFFSET 0.000000 2.741236 -0.000000
													CHANNELS 3 Zrotation Yrotation Xrotation
													End Site
													{
														OFFSET 0.000000 0.000000 0.000000
													}
												}
											}
										}
									}
									JOINT RightHandPinky1
									{
										OFFSET -0.173504 7.976997 -4.467199
										CHANNELS 3 Zrotation Yrotation Xrotation
										JOINT RightHandPinky2
										{
											OFFSET 0.000000 3.350399 -0.000000
											CHANNELS 3 Zrotation Yrotation Xrotation
											JOINT RightHandPinky3
											{
												OFFSET -0.000000 2.842763 0.000000
												CHANNELS 3 Zrotation Yrotation Xrotation
												JOINT RightHandPinky4
												{
													OFFSET -0.000000 2.639709 0.000000
													CHANNELS 3 Zrotation Yrotation Xrotation
													End Site
													{
														OFFSET 0.000000 0.000000 0.000000
													}
												}
											}
										}
									}
									JOINT RightForeArmEnd
									{
										OFFSET 0.000000 0.000000 0.000000
										CHANNELS 3 Zrotation Yrotation Xrotation
										End Site
										{
											OFFSET 0.000000 0.000000 0.000000
										}
									}
								}
								JOINT RightArmEnd
								{
									OFFSET 0.000000 0.000000 0.000000
									CHANNELS 3 Zrotation Yrotation Xrotation
									End Site
									{
										OFFSET 0.000000 0.000000 0.000000
									}
								}
							}
						}
					}
					JOINT LeftShoulder
					{
						OFFSET 2.625389 11.175210 0.000000
						CHANNELS 3 Zrotation Yrotation Xrotation
						JOINT LeftArm
						{
							OFFSET 0.000000 10.813635 -0.000000
							CHANNELS 3 Zrotation Yrotation Xrotation
							JOINT LeftForeArm
							{
								OFFSET 0.000000 28.724781 0.000000
								CHANNELS 3 Zrotation Yrotation Xrotation
								JOINT LeftHand
								{
									OFFSET 0.644384 25.716167 -0.328871
									CHANNELS 3 Zrotation Yrotation Xrotation
									JOINT LeftHandThumb1
									{
										OFFSET 2.867323 3.959563 2.944291
										CHANNELS 3 Zrotation Yrotation Xrotation
										JOINT LeftHandThumb2
										{
											OFFSET 0.000000 3.350399 0.000000
											CHANNELS 3 Zrotation Yrotation Xrotation
											JOINT LeftHandThumb3
											{
												OFFSET -0.000000 3.756509 0.000000
												CHANNELS 3 Zrotation Yrotation Xrotation
												JOINT LeftHandThumb4
												{
													OFFSET -0.000000 3.100000 0.000000
													CHANNELS 3 Zrotation Yrotation Xrotation
													End Site
													{
														OFFSET 0.000000 0.000000 0.000000
													}
												}
											}
										}
									}
									JOINT LeftHandIndex1
									{
										OFFSET 0.086752 10.030893 2.345280
										CHANNELS 3 Zrotation Yrotation Xrotation
										JOINT LeftHandIndex2
										{
											OFFSET -0.000000 4.061090 -0.000000
											CHANNELS 3 Zrotation Yrotation Xrotation
											JOINT LeftHandIndex3
											{
												OFFSET 0.000000 3.248873 -0.000000
												CHANNELS 3 Zrotation Yrotation Xrotation
												JOINT LeftHandIndex4
												{
													OFFSET 0.000000 2.639709 -0.000000
													CHANNELS 3 Zrotation Yrotation Xrotation
													End Site
													{
														OFFSET 0.000000 0.000000 0.000000
													}
												}
											}
										}
									}
									JOINT LeftHandMiddle1
									{
										OFFSET -0.104102 9.502952 0.006768
										CHANNELS 3 Zrotation Yrotation Xrotation
										JOINT LeftHandMiddle2
										{
											OFFSET -0.000000 4.568727 -0.000000
											CHANNELS 3 Zrotation Yrotation Xrotation
											JOINT LeftHandMiddle3
											{
												OFFSET 0.000000 3.654981 0.000000
												CHANNELS 3 Zrotation Yrotation Xrotation
												JOINT LeftHandMiddle4
												{
													OFFSET 0.000000 2.741236 -0.000000
													CHANNELS 3 Zrotation Yrotation Xrotation
													End Site
													{
														OFFSET 0.000000 0.000000 0.000000
													}
												}
											}
										}
									}
									JOINT LeftHandRing1
									{
										OFFSET -0.086752 8.921708 -2.267442
										CHANNELS 3 Zrotation Yrotation Xrotation
										JOINT LeftHandRing2
										{
											OFFSET 0.000000 4.061090 0.000000
											CHANNELS 3 Zrotation Yrotation Xrotation
											JOINT LeftHandRing3
											{
												OFFSET 0.000000 3.654981 0.000000
												CHANNELS 3 Zrotation Yrotation Xrotation
												JOINT LeftHandRing4
												{
													OFFSET 0.000000 2.741236 0.000000
													CHANNELS 3 Zrotation Yrotation Xrotation
													End Site
													{
														OFFSET 0.000000 0.000000 0.000000
													}
												}
											}
										}
									}
									JOINT LeftHandPinky1
									{
										OFFSET 0.173504 7.976997 -4.467199
										CHANNELS 3 Zrotation Yrotation Xrotation
										JOINT LeftHandPinky2
										{
											OFFSET -0.000000 3.350399 -0.000000
											CHANNELS 3 Zrotation Yrotation Xrotation
											JOINT LeftHandPinky3
											{
												OFFSET 0.000000 2.842763 0.000000
												CHANNELS 3 Zrotation Yrotation Xrotation
												JOINT LeftHandPinky4
												{
													OFFSET -0.000000 2.639709 -0.000000
													CHANNELS 3 Zrotation Yrotation Xrotation
													End Site
													{
														OFFSET 0.000000 0.000000 0.000000
													}
												}
											}
										}
									}
									JOINT LeftForeArmEnd
									{
										OFFSET 0.000000 0.000000 0.000000
										CHANNELS 3 Zrotation Yrotation Xrotation
										End Site
										{
											OFFSET 0.000000 0.000000 0.000000
										}
									}
								}
								JOINT LeftArmEnd
								{
									OFFSET 0.000000 0.000000 0.000000
									CHANNELS 3 Zrotation Yrotation Xrotation
									End Site
									{
										OFFSET 0.000000 0.000000 0.000000
									}
								}
							}
						}
					}
				}
			}
		}
	}
	JOINT RightUpLeg
	{
		OFFSET -11.289943 0.000000 0.000000
		CHANNELS 3 Zrotation Yrotation Xrotation
		JOINT RightLeg
		{
			OFFSET 0.000000 -38.200325 0.000000
			CHANNELS 3 Zrotation Yrotation Xrotation
			JOINT RightFoot
			{
				OFFSET -0.000000 -39.900856 -0.000000
				CHANNELS 3 Zrotation Yrotation Xrotation
				JOINT RightToeBase
				{
					OFFSET 0.000000 0.000000 15.261641
					CHANNELS 3 Zrotation Yrotation Xrotation
					JOINT RightToeBaseEnd
					{
						OFFSET 0.000000 0.000000 7.370709
						CHANNELS 3 Zrotation Yrotation Xrotation
						End Site
						{
							OFFSET 0.000000 0.000000 0.000000
						}
					}
				}
				JOINT RightLegEnd
				{
					OFFSET 0.000000 0.000000 0.000000
					CHANNELS 3 Zrotation Yrotation Xrotation
					End Site
					{
						OFFSET 0.000000 0.000000 0.000000
					}
				}
			}
			JOINT RightUpLegEnd
			{
				OFFSET 0.000000 0.000000 0.000000
				CHANNELS 3 Zrotation Yrotation Xrotation
				End Site
				{
					OFFSET 0.000000 0.000000 0.000000
				}
			}
		}
	}
	JOINT LeftUpLeg
	{
		OFFSET 11.315661 -0.000000 0.000000
		CHANNELS 3 Zrotation Yrotation Xrotation
		JOINT LeftLeg
		{
			OFFSET -0.000000 -38.200325 -0.000000
			CHANNELS 3 Zrotation Yrotation Xrotation
			JOINT LeftFoot
			{
				OFFSET 0.000000 -39.900856 -0.000000
				CHANNELS 3 Zrotation Yrotation Xrotation
				JOINT LeftToeBase
				{
					OFFSET -0.000000 -0.000000 15.261641
					CHANNELS 3 Zrotation Yrotation Xrotation
					JOINT LeftToeBaseEnd
					{
						OFFSET 0.000000 -0.000000 7.539996
						CHANNELS 3 Zrotation Yrotation Xrotation
						End Site
						{
							OFFSET 0.000000 0.000000 0.000000
						}
					}
				}
				JOINT LeftLegEnd
				{
					OFFSET 0.000000 0.000000 0.000000
					CHANNELS 3 Zrotation Yrotation Xrotation
					End Site
					{
						OFFSET 0.000000 0.000000 0.000000
					}
				}
			}
			JOINT LeftUpLegEnd
			{
				OFFSET 0.000000 0.000000 0.000000
				CHANNELS 3 Zrotation Yrotation Xrotation
				End Site
				{
					OFFSET 0.000000 0.000000 0.000000
				}
			}
		}
	}
}
MOTION
Frames: 5
Frame Time: 0.016667
0.053599 88.859886 3.107447 0.490481 0.055862 -6.497332 0.023754 -0.000539 5.886370 -1.012250 0.067046 0.861970 0.478071 -2.416792 3.829567 0.155030 -0.780500 1.929224 2.330515 0.848112 5.016849 0.371683 2.117863 -3.221864 -0.714533 -0.852149 -18.222401 0.000000 0.000000 0.000000 92.418694 -0.394880 9.707912 65.456573 -33.431271 5.091406 -0.130291 12.440493 22.353239 6.882370 13.743960 -6.458578 19.861429 30.097643 62.040974 -8.462701 -12.164348 -20.450144 -6.325801 -8.139122 -14.332924 0.000000 0.000000 0.000000 12.621688 -10.712396 0.231899 8.905269 0.376633 1.323778 8.902945 -0.111869 1.243825 0.000000 0.000000 0.000000 11.194713 -5.446730 -1.239449 7.889823 0.455857 0.481039 7.889222 -0.037052 0.412494 0.000000 0.000000 0.000000 10.912717 2.564455 -1.535874 7.825817 -0.947299 -0.611652 7.824722 0.070320 -0.477096 0.000000 0.000000 0.000000 9.631022 11.185607 -2.805182 7.161172 -1.900893 -1.652070 7.157181 0.085565 -1.400512 0.000000 0.000000 0.000000 0.000000 0.000000 0.000000 0.000000 0.000000 0.000000 -90.370071 0.051974 5.208683 -71.842018 19.306828 -7.574249 -0.664994 -8.642401 40.885647 -0.139946 -25.486511 -15.477552 -20.250540 -29.996990 61.691063 8.807010 12.918287 -21.553112 6.618044 8.635277 -15.110494 0.000000 0.000000 0.000000 -16.168392 -5.636370 -1.918335 -11.569428 0.324957 -1.715407 -11.569072 -0.164917 -1.615128 0.000000 0.000000 0.000000 -15.643335 -0.758781 -1.694552 -11.169063 0.440303 -0.678956 -11.168735 -0.058746 -0.582722 0.000000 0.000000 0.000000 -18.003109 7.607869 -1.025503 -12.703986 -0.874371 0.992852 -12.702737 0.099213 0.772902 0.000000 0.000000 0.000000 -18.852142 16.262062 -0.245862 -13.102126 -1.657223 2.980032 -13.096694 0.281077 2.526406 0.000000 0.000000 0.000000 0.000000 0.000000 0.000000 0.000000 0.000000 0.000000 -1.045058 -10.518975 11.869204 -0.078405 -0.635030 3.758801 -2.197730 -7.901679 18.681496 -0.890004 0.828132 -18.870453 0.000000 0.000000 0.000000 0.000000 0.000000 0.000000 0.000000 0.000000 0.000000 -1.784023 -6.543907 7.474547 0.053202 0.398207 7.545935 3.843466 -1.785134 17.966772 0.194973 -0.390531 -20.817129 0.000000 0.000000 0.000000 0.000000 0.000000 0.000000 0.000000 0.000000 0.000000 
0.111443 88.903366 2.906389 -0.281229 -0.304076 -7.312900 1.306985 -0.188563 6.651417 -0.994379 0.128297 2.663164 0.777034 -1.632948 1.570569 -0.883485 -0.169120 3.066231 1.372138 2.267473 3.122202 0.334719 2.949260 -3.812756 -1.037215 -0.562568 -18.443062 0.000000 0.000000 0.000000 92.996025 -0.441833 9.592619 65.032959 -32.108952 3.970333 -0.120094 13.043816 23.229134 6.845217 13.230274 -6.839362 19.884569 30.091240 62.066944 -8.441136 -12.096481 -20.459816 -6.299809 -8.108223 -14.296529 0.000000 0.000000 0.000000 12.033367 -10.747062 -0.285538 8.950255 0.328726 1.336722 8.740617 -0.112215 1.269955 0.000000 0.000000 0.000000 10.865518 -5.353189 -1.088784 7.615105 0.420595 0.521307 7.986197 -0.054666 0.445979 0.000000 0.000000 0.000000 10.314411 2.577645 -0.834127 7.431958 -0.886274 -0.856609 7.472415 0.069679 -0.629444 0.000000 0.000000 0.000000 9.596031 11.053334 -1.794109 7.135857 -1.640991 -2.440087 6.723893 0.285126 -2.060187 0.000000 0.000000 0.000000 0.000000 0.000000 0.000000 0.000000 0.000000 0.000000 -89.914375 0.118857 6.032165 -71.665787 19.630669 -6.560596 -1.213809 -9.036406 40.412487 1.892771 -23.316496 -16.130804 -20.253553 -29.966339 61.604477 8.886594 12.962479 -21.702158 6.654678 8.676093 -15.169614 0.000000 0.000000 0.000000 -17.242785 -5.496241 -0.182722 -11.024571 0.291437 -1.393502 -11.144657 -0.171935 -1.285360 0.000000 0.000000 0.000000 -16.583155 -0.506576 -0.960621 -10.916153 0.407622 -0.589275 -10.830018 -0.067815 -0.472792 0.000000 0.000000 0.000000 -18.744974 7.546399 -0.764109 -12.434558 -0.867424 0.847508 -12.412521 0.085610 0.658265 0.000000 0.000000 0.000000 -20.001225 15.964567 -1.156499 -13.003191 -1.543795 2.640333 -12.858442 0.348379 2.245792 0.000000 0.000000 0.000000 0.000000 0.000000 0.000000 0.000000 0.000000 0.000000 0.148110 -9.173813 11.037841 -0.048074 -0.638553 6.178167 -2.886153 -9.104702 17.696075 -0.791960 0.750320 -19.043455 0.000000 0.000000 0.000000 0.000000 0.000000 0.000000 0.000000 0.000000 0.000000 -1.549047 -6.351718 7.160281 0.057335 0.363077 8.515887 3.756719 -0.613089 16.995270 0.386658 -0.473542 -20.519922 0.000000 0.000000 0.000000 0.000000 0.000000 0.000000 0.000000 0.000000 0.000000 
0.112192 88.884651 2.893648 -0.298613 -0.364367 -7.387450 1.300838 -0.177579 6.700871 -0.937759 0.117724 2.628038 0.772154 -1.602743 1.678180 -0.859026 -0.143301 3.094878 1.297238 2.187225 3.065904 0.322299 2.864915 -3.801041 -1.045702 -0.598131 -18.403839 0.000000 0.000000 0.000000 92.899773 -0.435917 9.537726 65.032501 -32.293541 4.037862 -0.078560 13.087861 23.283367 6.659610 12.876194 -6.815431 19.868868 30.091957 62.069710 -8.441728 -12.079638 -20.438744 -6.300253 -8.093615 -14.281074 0.000000 0.000000 0.000000 11.999764 -10.737929 -0.320091 8.950173 0.329646 1.325649 8.753364 -0.109350 1.256504 0.000000 0.000000 0.000000 10.870778 -5.343529 -1.091402 7.631973 0.419571 0.516312 8.004107 -0.054482 0.442461 0.000000 0.000000 0.000000 10.344534 2.564120 -0.812123 7.490536 -0.884955 -0.849702 7.531358 0.067876 -0.622328 0.000000 0.000000 0.000000 9.583597 11.032738 -1.715804 7.140479 -1.640864 -2.430542 6.747507 0.282545 -2.043773 0.000000 0.000000 0.000000 0.000000 0.000000 0.000000 0.000000 0.000000 0.000000 -89.864578 0.114742 6.073184 -71.812950 19.793871 -6.523612 -1.202629 -9.065049 40.462799 2.055233 -23.123486 -16.161343 -20.239674 -29.974113 61.620876 8.863053 12.930709 -21.654980 6.637797 8.652079 -15.134476 0.000000 0.000000 0.000000 -17.125170 -5.544582 -0.284434 -11.087721 0.291889 -1.377409 -11.193675 -0.168949 -1.273079 0.000000 0.000000 0.000000 -16.464746 -0.538730 -1.033800 -10.987457 0.407650 -0.586437 -10.896725 -0.068021 -0.470926 0.000000 0.000000 0.000000 -18.688211 7.536090 -0.846715 -12.518951 -0.867359 0.846167 -12.478367 0.085335 0.656290 0.000000 0.000000 0.000000 -19.987864 15.962305 -1.247305 -13.048522 -1.546007 2.614557 -12.883220 0.345016 2.236692 0.000000 0.000000 0.000000 0.000000 0.000000 0.000000 0.000000 0.000000 0.000000 0.136111 -9.116318 11.136071 -0.048423 -0.641168 6.120986 -2.827877 -9.115404 17.718140 -0.794030 0.750185 -19.041494 0.000000 0.000000 0.000000 0.000000 0.000000 0.000000 0.000000 0.000000 0.000000 -1.534459 -6.291476 7.152657 0.056103 0.354042 8.586496 3.763764 -0.588327 17.006535 0.372191 -0.481030 -20.546942 0.000000 0.000000 0.000000 0.000000 0.000000 0.000000 0.000000 0.000000 0.000000 
0.115666 88.871208 2.895919 -0.312448 -0.418024 -7.471048 1.300391 -0.168838 6.711122 -0.928468 0.119385 2.601800 0.791815 -1.600595 1.751548 -0.843066 -0.120065 3.139948 1.237407 2.156061 3.009555 0.337914 2.837572 -3.789109 -1.048108 -0.616838 -18.378504 0.000000 0.000000 0.000000 92.803444 -0.438060 9.496943 65.157013 -32.153687 3.946680 -0.075018 13.129283 23.446913 6.665758 12.580276 -6.744976 19.873861 30.090960 62.060032 -8.450307 -12.101116 -20.467270 -6.306494 -8.101813 -14.299823 0.000000 0.000000 0.000000 12.037497 -10.754324 -0.328939 9.032979 0.331319 1.312570 8.843472 -0.107197 1.241763 0.000000 0.000000 0.000000 10.917895 -5.348591 -1.083804 7.710958 0.419946 0.510871 8.082275 -0.053471 0.437256 0.000000 0.000000 0.000000 10.382056 2.563829 -0.771351 7.572387 -0.885034 -0.845939 7.614300 0.066947 -0.617527 0.000000 0.000000 0.000000 9.572719 11.043006 -1.613434 7.172427 -1.639382 -2.435000 6.792264 0.284449 -2.046491 0.000000 0.000000 0.000000 0.000000 0.000000 0.000000 0.000000 0.000000 0.000000 -89.822678 0.115013 6.089818 -71.976128 19.803684 -6.531151 -1.160886 -9.095264 40.462532 2.059049 -23.007080 -15.981461 -20.241510 -29.976603 61.622818 8.857251 12.919242 -21.655512 6.634133 8.649483 -15.128873 0.000000 0.000000 0.000000 -17.084564 -5.578264 -0.262563 -11.115121 0.292730 -1.363145 -11.204025 -0.166955 -1.261773 0.000000 0.000000 0.000000 -16.406536 -0.557014 -1.012601 -11.026145 0.407688 -0.581957 -10.938086 -0.068016 -0.466881 0.000000 0.000000 0.000000 -18.701231 7.532476 -0.810752 -12.569983 -0.867721 0.848308 -12.532475 0.084962 0.655712 0.000000 0.000000 0.000000 -20.058939 15.958328 -1.241520 -13.097918 -1.544709 2.620155 -12.910026 0.349396 2.247922 0.000000 0.000000 0.000000 0.000000 0.000000 0.000000 0.000000 0.000000 0.000000 0.118784 -9.065389 11.235437 -0.048506 -0.639475 6.116159 -2.776194 -9.129780 17.736761 -0.798074 0.751351 -19.038424 0.000000 0.000000 0.000000 0.000000 0.000000 0.000000 0.000000 0.000000 0.000000 -1.525504 -6.248254 7.145963 0.055321 0.349759 8.688283 3.779546 -0.566648 17.001839 0.364336 -0.485713 -20.551018 0.000000 0.000000 0.000000 0.000000 0.000000 0.000000 0.000000 0.000000 0.000000 
0.119320 88.860085 2.905084 -0.331125 -0.465572 -7.558820 1.311593 -0.160795 6.711649 -0.927970 0.123767 2.576150 0.803704 -1.584138 1.821720 -0.837097 -0.099268 3.178650 1.158629 2.157073 3.019588 0.360923 2.828684 -3.752080 -1.040254 -0.629079 -18.390730 0.000000 0.000000 0.000000 92.735657 -0.432767 9.492148 65.371307 -31.936392 3.760619 -0.079914 13.242451 23.603889 6.673595 12.342243 -6.615113 19.888935 30.086510 62.040771 -8.467150 -12.142205 -20.522404 -6.320480 -8.124899 -14.334577 0.000000 0.000000 0.000000 12.159541 -10.784521 -0.304145 9.140621 0.337905 1.288382 8.955912 -0.099802 1.219238 0.000000 0.000000 0.000000 11.050105 -5.371020 -1.045009 7.814110 0.423325 0.500894 8.185754 -0.050232 0.428363 0.000000 0.000000 0.000000 10.508883 2.545637 -0.697190 7.673172 -0.889915 -0.833164 7.716150 0.062832 -0.606058 0.000000 0.000000 0.000000 9.636215 11.038844 -1.488255 7.229844 -1.651605 -2.406874 6.859809 0.275133 -2.023158 0.000000 0.000000 0.000000 0.000000 0.000000 0.000000 0.000000 0.000000 0.000000 -89.789680 0.104729 6.105315 -72.069252 19.782427 -6.500793 -1.130785 -9.128431 40.534355 1.973100 -22.972837 -15.793316 -20.228447 -29.978262 61.630924 8.854677 12.882627 -21.628157 6.627203 8.629229 -15.103549 0.000000 0.000000 0.000000 -17.027500 -5.599028 -0.189924 -11.074433 0.301888 -1.327493 -11.149762 -0.156502 -1.230648 0.000000 0.000000 0.000000 -16.333258 -0.570542 -0.944257 -10.993353 0.411497 -0.567776 -10.911196 -0.064666 -0.454809 0.000000 0.000000 0.000000 -18.682707 7.516189 -0.725938 -12.556764 -0.873591 0.835627 -12.517234 0.080187 0.644598 0.000000 0.000000 0.000000 -20.104387 15.931427 -1.195801 -13.092072 -1.559758 2.581420 -12.884595 0.338450 2.221416 0.000000 0.000000 0.000000 0.000000 0.000000 0.000000 0.000000 0.000000 0.000000 0.104364 -9.021774 11.332788 -0.048469 -0.636588 6.130288 -2.738711 -9.116102 17.741753 -0.798998 0.750731 -19.025908 0.000000 0.000000 0.000000 0.000000 0.000000 0.000000 0.000000 0.000000 0.000000 -1.512951 -6.230645 7.161511 0.055013 0.346055 8.774331 3.780708 -0.527894 16.997204 0.363319 -0.488583 -20.547373 0.000000 0.000000 0.000000 0.000000 0.000000 0.000000 0.000000 0.000000 0.000000 
